<svg width="24" height="26" viewBox="0 0 24 26" fill="currentColor" xmlns="http://www.w3.org/2000/svg">
<path d="M22.9541 12.3643C23.0596 12.0127 23.1123 11.6494 23.1123 11.2803C23.1123 10.4512 22.8398 9.6543 22.3477 9.00391C22.4531 8.65234 22.5059 8.28906 22.5059 7.91992C22.5059 7.09082 22.2334 6.29395 21.7412 5.64355C21.8467 5.29199 21.8994 4.92871 21.8994 4.55957C21.8994 3.04785 21 1.68555 19.6055 1.09082C19.3603 0.985142 19.096 0.931281 18.8291 0.932617H4.99805V13.4717H5.00684L7.52051 22.5771C7.9248 24.0449 9.27246 25.0703 10.7959 25.0703C11.666 25.0703 12.4775 24.7246 13.0781 24.0918C13.6787 23.4619 13.9863 22.6357 13.9424 21.7656L13.7666 18.165H20.7949C21.1494 18.165 21.4951 18.0713 21.7998 17.8926C22.9834 17.2041 23.7188 15.9561 23.7188 14.6406C23.7188 13.8115 23.4463 13.0146 22.9541 12.3643V12.3643ZM0.28125 1.86719V12.5312C0.28125 13.0498 0.700195 13.4688 1.21875 13.4688H3.12305V0.929688H1.21875C0.700195 0.929688 0.28125 1.34863 0.28125 1.86719Z"/>
</svg>
