<svg width="30" height="25" viewBox="0 0 30 25" fill="currentColor" xmlns="http://www.w3.org/2000/svg">
<path d="M21.4508 2C22.1788 1.99939 22.8997 2.14413 23.5711 2.42575C24.2425 2.70736 24.851 3.12018 25.3608 3.64C26.4112 4.70638 27 6.14316 27 7.64C27 9.13685 26.4112 10.5736 25.3608 11.64L15.0008 22.13L4.64075 11.64C3.59033 10.5736 3.00154 9.13685 3.00154 7.64C3.00154 6.14316 3.59033 4.70638 4.64075 3.64C5.15084 3.12055 5.75933 2.70795 6.43066 2.42629C7.102 2.14464 7.82273 1.99957 8.55075 1.99957C9.27878 1.99957 9.99951 2.14464 10.6708 2.42629C11.3422 2.70795 11.9507 3.12055 12.4608 3.64L15.0008 6.24L17.5308 3.66C18.039 3.13398 18.6481 2.71586 19.3216 2.43064C19.9952 2.14542 20.7193 1.99895 21.4508 2V2ZM21.4508 2.68285e-06C20.4564 -0.000840038 19.4718 0.196858 18.5549 0.581505C17.6379 0.966151 16.8069 1.53 16.1108 2.24L15.0008 3.36L13.8908 2.24C13.1937 1.53129 12.3625 0.968412 11.4457 0.584193C10.5289 0.199974 9.54481 0.00209743 8.55075 0.00209743C7.55669 0.00209743 6.57257 0.199974 5.65576 0.584193C4.73896 0.968412 3.9078 1.53129 3.21075 2.24C1.79263 3.68363 0.998047 5.62636 0.998047 7.65C0.998047 9.67364 1.79263 11.6164 3.21075 13.06L15.0008 25L26.7908 13.06C28.2089 11.6164 29.0035 9.67364 29.0035 7.65C29.0035 5.62636 28.2089 3.68363 26.7908 2.24C26.0939 1.53091 25.2628 0.967646 24.346 0.583064C23.4292 0.198482 22.445 0.000276098 21.4508 2.68285e-06V2.68285e-06Z"/>
</svg>
