<svg width="24" height="26" viewBox="0 0 24 26" fill="currentColor" xmlns="http://www.w3.org/2000/svg">
<path d="M22.9541 13.6357C23.4463 12.9854 23.7188 12.1885 23.7188 11.3594C23.7188 10.044 22.9834 8.79884 21.7998 8.1045C21.4951 7.92578 21.1482 7.83172 20.7949 7.83204H13.7695L13.9453 4.23146C13.9863 3.36135 13.6787 2.53518 13.0811 1.90529C12.7878 1.59483 12.4339 1.34781 12.0414 1.17951C11.6488 1.01121 11.2259 0.92519 10.7988 0.926779C9.27539 0.926779 7.92773 1.95217 7.52344 3.41994L5.00684 12.5313H4.99805V25.0703H18.835C19.1045 25.0703 19.3682 25.0176 19.6113 24.9121C21.0059 24.3174 21.9053 22.9551 21.9053 21.4434C21.9053 21.0742 21.8525 20.7109 21.7471 20.3594C22.2393 19.709 22.5117 18.9121 22.5117 18.083C22.5117 17.7139 22.459 17.3506 22.3535 16.999C22.8457 16.3486 23.1182 15.5518 23.1182 14.7227C23.1123 14.3535 23.0596 13.9873 22.9541 13.6357V13.6357ZM0.28125 13.4688V24.1328C0.28125 24.6514 0.700195 25.0703 1.21875 25.0703H3.12305V12.5313H1.21875C0.700195 12.5313 0.28125 12.9502 0.28125 13.4688Z"/>
</svg>
